<?xml version="1.0" standalone="no"?>
<!DOCTYPE svg PUBLIC "-//W3C//DTD SVG 20010904//EN"
 "http://www.w3.org/TR/2001/REC-SVG-20010904/DTD/svg10.dtd">
<svg version="1.0" xmlns="http://www.w3.org/2000/svg"
 width="309.000000pt" height="312.000000pt" viewBox="0 0 309.000000 312.000000"
 preserveAspectRatio="xMidYMid meet">

<g transform="translate(0.000000,312.000000) scale(0.100000,-0.100000)"
fill="#000000" stroke="none">
<path d="M1490 2304 c0 -26 -45 -851 -64 -1192 -8 -134 -16 -245 -18 -247 -2
-2 -121 237 -263 531 -143 295 -263 538 -267 540 -9 6 -2 -308 13 -571 18
-338 -21 -489 -143 -551 -117 -59 -336 -6 -493 120 -64 52 -70 52 -36 2 152
-221 379 -338 542 -281 127 45 203 173 233 395 l12 85 62 -115 c34 -63 130
-244 214 -402 134 -251 154 -283 160 -260 4 15 31 285 60 600 29 314 55 572
58 572 3 0 108 -240 234 -533 126 -292 251 -578 277 -634 60 -126 117 -186
226 -240 l77 -38 146 1 c80 1 155 6 166 10 20 9 16 18 -80 194 -56 102 -313
570 -570 1040 -258 470 -486 887 -507 925 -24 44 -39 62 -39 49z"/>
<path d="M2454 1649 c-4 -7 -1 -10 7 -7 8 3 19 -2 25 -10 9 -12 13 -12 19 -2
5 9 4 11 -3 6 -7 -4 -12 -1 -12 8 0 18 -25 21 -36 5z"/>
<path d="M2410 1640 c0 -5 7 -10 15 -10 8 0 15 5 15 10 0 6 -7 10 -15 10 -8 0
-15 -4 -15 -10z"/>
<path d="M2608 1625 c-3 -14 -1 -25 3 -25 5 0 9 11 9 25 0 14 -2 25 -4 25 -2
0 -6 -11 -8 -25z"/>
<path d="M2433 1619 c-20 -7 -21 -12 -16 -126 5 -99 -9 -288 -22 -301 -2 -2
-35 20 -75 48 -39 29 -72 51 -74 49 -3 -4 536 -830 540 -826 1 1 -4 36 -11 77
-8 41 -14 117 -14 169 -1 78 -3 92 -16 87 -8 -3 -15 -1 -15 5 0 5 10 14 23 19
16 6 17 9 5 9 -9 1 -20 -4 -23 -9 -4 -6 -14 -9 -22 -8 -9 2 -18 -3 -21 -11 -3
-8 0 -11 7 -7 6 4 11 3 11 -2 0 -5 -9 -12 -19 -15 -16 -4 -21 3 -30 42 -24 98
-30 206 -31 478 0 159 -4 284 -9 287 -5 4 -22 1 -37 -5 -16 -5 -25 -7 -21 -3
4 4 2 13 -4 21 -9 10 -8 13 2 13 9 0 10 3 3 10 -7 7 -19 8 -37 1 -16 -6 -36
-7 -49 -2 -13 5 -33 5 -45 0z"/>
</g>
</svg>
